<svg width="24" height="24" viewBox="0 0 24 24" fill="none" xmlns="http://www.w3.org/2000/svg">
<path d="M21.3333 3.8147e-06C22.0406 3.8147e-06 22.7189 0.280955 23.219 0.781052C23.719 1.28115 24 1.95943 24 2.66667V21.3333C24 22.0406 23.719 22.7189 23.219 23.219C22.7189 23.7191 22.0406 24 21.3333 24H2.66667C1.95942 24 1.28115 23.7191 0.781048 23.219C0.280951 22.7189 0 22.0406 0 21.3333V2.66667C0 1.95943 0.280951 1.28115 0.781048 0.781052C1.28115 0.280955 1.95942 3.8147e-06 2.66667 3.8147e-06H21.3333ZM20.6667 20.6667V13.6C20.6667 12.4472 20.2087 11.3416 19.3936 10.5264C18.5784 9.71129 17.4728 9.25334 16.32 9.25334C15.1867 9.25334 13.8667 9.94667 13.2267 10.9867V9.50667H9.50667V20.6667H13.2267V14.0933C13.2267 13.0667 14.0533 12.2267 15.08 12.2267C15.5751 12.2267 16.0499 12.4233 16.3999 12.7734C16.75 13.1235 16.9467 13.5983 16.9467 14.0933V20.6667H20.6667ZM5.17333 7.41334C5.76742 7.41334 6.33717 7.17734 6.75725 6.75726C7.17733 6.33718 7.41333 5.76742 7.41333 5.17334C7.41333 3.93334 6.41333 2.92 5.17333 2.92C4.57571 2.92 4.00257 3.15741 3.57999 3.57999C3.1574 4.00257 2.92 4.57572 2.92 5.17334C2.92 6.41334 3.93333 7.41334 5.17333 7.41334ZM7.02667 20.6667V9.50667H3.33333V20.6667H7.02667Z" fill="black"/>
</svg>
